<?xml version="1.0" encoding="UTF-8" standalone="no"?>
<!-- Created with Inkscape (http://www.inkscape.org/) -->

<svg
   xmlns:dc="http://purl.org/dc/elements/1.1/"
   xmlns:cc="http://creativecommons.org/ns#"
   xmlns:rdf="http://www.w3.org/1999/02/22-rdf-syntax-ns#"
   xmlns:svg="http://www.w3.org/2000/svg"
   xmlns="http://www.w3.org/2000/svg"
   xmlns:sodipodi="http://sodipodi.sourceforge.net/DTD/sodipodi-0.dtd"
   xmlns:inkscape="http://www.inkscape.org/namespaces/inkscape"
   version="1.0"
   width="900"
   height="900"
   id="svg2848"
   sodipodi:version="0.32"
   inkscape:version="0.91 r13725"
   sodipodi:docname="WikiJournal_of_Science_logo (flat black).svg">
  <metadata
     id="metadata1970">
    <rdf:RDF>
      <cc:Work
         rdf:about="">
        <dc:format>image/svg+xml</dc:format>
        <dc:type
           rdf:resource="http://purl.org/dc/dcmitype/StillImage" />
        <dc:title></dc:title>
      </cc:Work>
    </rdf:RDF>
  </metadata>
  <sodipodi:namedview
     inkscape:window-height="1057"
     inkscape:window-width="1858"
     inkscape:pageshadow="2"
     inkscape:pageopacity="0.0"
     guidetolerance="10.0"
     gridtolerance="10.0"
     objecttolerance="10.0"
     borderopacity="1.0"
     bordercolor="#666666"
     pagecolor="#ffffff"
     id="base"
     height="900px"
     width="900px"
     inkscape:zoom="1.0288889"
     inkscape:cx="324.37038"
     inkscape:cy="494.75771"
     inkscape:window-x="54"
     inkscape:window-y="-8"
     inkscape:current-layer="svg2848"
     showgrid="false"
     inkscape:window-maximized="1" />
  <defs
     id="defs2850" />
  <path
     style="fill:#000000;fill-opacity:1"
     d="M 448.22461 148.82031 C 434.89331 148.90576 421.72439 150.10935 408.71289 152.35352 C 406.73009 152.69551 404.75089 153.0588 402.77539 153.44922 C 281.34879 172.55508 183.86818 266.18795 156.08008 387.39258 C 150.78508 407.77234 147.9205 428.7412 147.9375 450 C 147.9375 450.0072 147.9374 450.01448 147.9375 450.02148 C 147.95 452.4879 148.01456 454.93322 148.10156 457.36914 C 148.10056 457.66936 148.08984 457.96715 148.08984 458.26758 C 148.14374 552.75157 190.37599 641.43758 261.74609 699.57422 C 314.04469 745.87299 291.14039 819.56907 311.08789 879.56641 C 319.64499 882.30679 328.31298 884.80201 337.08398 887.03516 C 342.50919 888.41648 347.97871 889.68709 353.48047 890.86914 C 353.19941 852.11729 358.09262 776.18374 348.00586 738.29883 C 356.43376 741.35689 364.99215 744.04244 373.65625 746.34766 C 377.34865 765.67025 378.83937 787.60984 379.19727 809.13867 C 379.24227 811.827 379.26925 814.50864 379.28125 817.17773 C 379.29325 819.85038 379.29148 822.51089 379.27148 825.15234 C 379.10688 851.53918 377.61811 876.06909 376.94531 892.78516 C 376.94511 892.79016 376.94551 892.79773 376.94531 892.80273 C 376.91083 893.65948 376.88546 894.43526 376.85547 895.25 C 381.76279 896.034 386.69361 896.74509 391.65234 897.36914 C 400.93434 898.53728 410.30325 899.42264 419.75195 900.01562 C 426.56642 900.4433 433.42303 900.71329 440.31641 900.83398 C 440.16396 853.62698 439.39888 805.3492 438.44141 756.25391 C 442.93391 756.57863 447.43305 756.80395 451.93555 756.92969 C 457.19465 756.87924 462.45167 756.69298 467.70117 756.37109 C 466.75738 805.54 465.98483 853.80947 465.7832 900.69922 C 470.73335 900.54989 475.66363 900.32369 480.57227 900.01562 C 490.02097 899.42263 499.38987 898.53728 508.67188 897.36914 C 515.49309 896.5107 522.26536 895.49631 528.98828 894.33594 C 528.4167 879.21045 527.08785 857.29168 526.70703 832.94727 C 526.66703 830.37107 526.63709 827.77094 526.62109 825.15234 C 526.62089 825.13034 526.62119 825.10794 526.62109 825.08594 C 526.59609 820.94661 526.61111 816.75422 526.66211 812.54688 C 526.67511 811.41014 526.68022 810.27823 526.69922 809.13867 C 526.74422 806.44912 526.80472 803.75351 526.88672 801.05664 C 527.46232 782.0765 529.017 763.07325 532.2793 746.10352 C 540.9894 743.68155 549.58773 740.87409 558.04883 737.68945 C 547.85676 774.96706 552.59681 850.30509 552.42578 889.63281 C 556.04573 888.80647 559.65404 887.94824 563.24023 887.03516 C 572.01123 884.80201 580.67923 882.30679 589.23633 879.56641 C 609.18383 819.56907 586.27954 745.87299 638.57812 699.57422 C 709.94823 641.43758 752.18037 552.75157 752.23438 458.26758 C 752.23437 457.96715 752.22266 457.66936 752.22266 457.36914 C 752.30966 454.93322 752.37472 452.4879 752.38672 450.02148 C 752.38692 450.01448 752.38672 450.007 752.38672 450 C 752.40372 428.7412 749.53914 407.77234 744.24414 387.39258 C 716.45544 266.18795 618.97543 172.55508 497.54883 153.44922 C 495.57333 153.0588 493.59413 152.69551 491.61133 152.35352 C 478.59983 150.10935 465.43101 148.90571 452.09961 148.82031 C 451.45471 148.81631 450.80771 148.82517 450.16211 148.82617 C 449.51651 148.82517 448.86951 148.81631 448.22461 148.82031 z M 451.66797 204.71094 C 487.59017 204.71094 516.54084 238.66856 538.52344 306.58008 C 558.71634 302.11474 577.12745 299.87695 593.74805 299.87695 C 615.90545 299.87695 633.95784 303.63075 647.89844 311.13672 C 665.76604 320.78751 674.70703 335.7125 674.70703 355.90625 C 674.70703 384.14583 657.99197 416.93855 624.57617 454.28906 C 657.99117 491.81892 674.70508 524.70446 674.70508 552.93945 C 674.70508 590.29363 646.91288 608.9668 591.33398 608.9668 C 575.24978 608.9668 557.64494 607.00402 538.52344 603.07031 C 516.54194 670.26536 487.59017 703.86523 451.66797 703.86523 C 416.45777 703.86523 387.86471 670.26445 365.88281 603.07031 C 346.75801 607.35997 328.70992 609.50391 311.73242 609.50391 C 256.86542 609.50391 229.43359 590.64957 229.43359 552.93945 C 229.43359 525.24067 245.96184 492.35407 279.02734 454.28711 C 245.78614 417.11685 229.16602 384.68086 229.16602 356.97656 C 229.16602 318.90958 256.1495 299.87695 310.125 299.87695 C 326.7456 299.87695 344.9747 302.11279 364.8125 306.57812 C 388.0432 238.66753 416.99387 204.71094 451.66797 204.71094 z M 451.125 246.51172 C 421.50823 246.69938 392.1168 267.53665 376.875 308.45703 C 400.6419 313.64249 425.30288 322.30741 450.86328 334.45898 C 478.56208 321.95146 503.84912 313.28197 526.72852 308.45703 C 510.58342 266.78601 480.74177 246.32406 451.125 246.51172 z M 559.80273 315.23438 C 553.97316 315.16192 547.93855 315.56755 541.74023 316.49805 C 548.34943 338.47976 553.26797 364.12723 556.48438 393.43555 C 580.61098 412.20096 600.26874 429.18062 615.46094 444.36914 C 668.93881 383.65127 628.59177 316.08931 559.80273 315.23438 z M 342.70508 315.93945 C 266.72665 315.99756 234.35375 389.85966 288.14062 446.24609 C 305.65332 427.4807 325.57956 410.23622 347.92188 394.50781 C 350.60278 368.06078 355.60535 342.41331 362.93555 317.57031 C 355.89624 316.45958 349.14393 315.93453 342.70508 315.93945 z M 530.75 318.64258 C 513.232 322.75564 490.89502 329.72622 463.73242 339.55273 C 490.35972 353.13723 504.11894 360.19427 505.01562 360.73047 C 518.59372 368.23644 531.82145 376.81599 544.68945 386.4668 C 543.08085 374.13496 538.4309 351.52774 530.75 318.64258 z M 372.85352 319.44727 C 368.20422 334.81975 363.55876 357.51324 358.91406 387.53711 C 376.24636 372.88478 395.90794 360.55428 417.89062 350.54297 C 422.53524 348.39905 429.50588 345.094 438.80078 340.625 C 416.10178 330.61827 394.11952 323.56124 372.85352 319.44727 z M 451.66797 345.44922 C 421.81887 356.70862 390.54564 374.66928 357.83984 399.33203 C 355.33544 420.60182 354.08594 438.9183 354.08594 454.28711 C 354.08594 469.47931 355.33444 488.15706 357.83984 510.31445 C 390.90064 533.19287 422.17947 551.15355 451.66797 564.19727 C 477.40317 554.54649 509.03551 536.23093 546.56641 509.24219 C 548.53091 492.80282 549.51367 474.48646 549.51367 454.28906 C 549.51367 435.16773 548.53091 416.85128 546.56641 399.33398 C 536.55501 392.36422 521.27341 382.35689 500.72461 369.30859 C 486.24891 360.91046 469.89717 352.9561 451.66797 345.44922 z M 346.84961 407.375 C 326.83241 422.74748 309.58713 438.73881 295.11133 455.35938 C 309.22753 470.5516 326.20732 485.83235 346.04492 501.20117 C 344.61292 481.36337 343.90039 465.72678 343.90039 454.28711 C 343.90129 438.73895 344.88141 423.10343 346.84961 407.375 z M 558.62891 408.44727 C 559.33971 418.45766 559.70117 432.39892 559.70117 450.26758 L 559.70117 460.18555 C 559.70117 476.80609 558.98504 490.47795 557.55664 501.20117 C 569.52714 491.37468 586.50843 475.73455 608.49023 454.28906 C 597.05053 442.1375 580.43041 426.8567 558.62891 408.44727 z M 451.93555 415.68555 C 462.83335 415.68555 472.39564 419.48535 480.61914 427.08008 C 488.83684 434.67665 492.95117 443.92532 492.95117 454.82422 C 492.95117 465.7277 488.83684 474.9765 480.61914 482.57031 C 472.39654 490.1687 462.83335 493.96289 451.93555 493.96289 C 441.03205 493.96289 431.4679 490.1687 423.25 482.57031 C 415.0276 474.9765 410.91797 465.72678 410.91797 454.82422 C 410.91797 443.92532 415.0266 434.67756 423.25 427.08008 C 431.4668 419.48626 441.03205 415.68555 451.93555 415.68555 z M 287.06836 464.20703 C 229.08266 536.56228 278.69989 605.1707 362.93359 592.07812 C 355.78349 569.02404 350.77847 543.73692 347.92188 516.21289 C 328.97618 502.27336 308.69056 484.94063 287.06836 464.20703 z M 616.5332 464.20703 C 600.6237 480.29137 580.61087 497.6287 556.48438 516.21289 C 553.26707 544.62907 548.35049 569.91984 541.74219 592.07812 C 638.05709 601.23163 673.977 533.30774 616.5332 464.20703 z M 358.91406 522.11133 C 363.37946 552.31639 368.38428 574.92165 373.92578 589.93359 C 393.76258 586.54159 415.74645 579.57004 439.87305 569.02344 C 403.41475 551.33046 376.42676 535.69583 358.91406 522.11133 z M 545.49414 523.18359 C 525.47614 536.05161 512.34119 544.27344 506.08789 547.8457 C 491.07589 556.78461 477.31119 563.84163 464.80469 569.02344 C 493.22069 580.28284 515.202 587.25256 530.75 589.93359 C 536.6475 569.73986 541.56044 547.4913 545.49414 523.18359 z M 452.74023 575.18945 C 423.78773 587.52127 398.4971 595.83236 376.875 600.12109 C 412.2162 685.84855 494.22582 683.46839 526.72852 600.12109 C 502.95702 595.11957 478.29413 586.80848 452.74023 575.18945 z "
     id="path7707" />
  <path
     sodipodi:nodetypes="ccccccccccccccccccccccccccccccccccccccccccc"
     inkscape:connector-curvature="0"
     id="path7709"
     d="m 477.37769,0.59429589 -6.7793,99.77539411 c -7.4189,-0.474248 -12.8982,-0.720671 -20.4356,-0.724611 -7.538,0.004 -13.018,0.250323 -20.4375,0.724611 l -6.7793,-99.77539411 c 19.4627,-1.27795 35.081,-1.24245 54.4317,0 z M 613.93429,30.344299 c 16.1708,6.31996 31.8845,13.5559 47.084,21.63086 l -0.082,0.14844 c 0.4006,0.21322 0.8051,0.42035 1.205,0.63476 l -48.2597,87.638671 c -11.3773,-6.05075 -23.1237,-11.49785 -35.2032,-16.28516 l 0.043,-0.10937 c -0.4993,-0.1973 -0.9957,-0.40063 -1.4961,-0.5957 z m -327.5449,0 36.709,93.062501 c -0.5004,0.19507 -0.9969,0.3984 -1.4961,0.5957 l 0.043,0.10937 c -12.0795,4.78731 -23.8258,10.23441 -35.2031,16.28516 l -48.2598,-87.638671 c 0.4,-0.21441 0.8044,-0.42154 1.2051,-0.63476 l -0.082,-0.14844 c 15.1995,-8.07496 30.9132,-15.3109 47.084,-21.63086 z m 488.1875,107.369141 c 11.9923,12.46256 23.2703,25.61566 33.7754,39.39062 l -0.2325,0.17188 c 0.077,0.1008 0.1557,0.1999 0.2325,0.30078 l -80.5606,59.3418 c -7.8806,-10.27474 -16.3201,-20.09761 -25.2676,-29.42968 l 0.1856,-0.17774 c -0.1579,-0.16444 -0.3125,-0.33196 -0.4707,-0.49609 z m -648.8301,0 72.3379,69.10157 c -0.1582,0.16413 -0.3128,0.33165 -0.4707,0.49609 l 0.1855,0.17774 c -8.9475,9.33207 -17.3869,19.15494 -25.2675,29.42968 l -80.560596,-59.3418 c 0.077,-0.10088 0.1556,-0.19998 0.2324,-0.30078 l -0.2324,-0.17188 C 102.47649,163.3291 113.75449,150.176 125.74679,137.71344 Z"
     style="opacity:1;fill:#000000;fill-opacity:1;stroke:none;stroke-width:10;stroke-linecap:round;stroke-linejoin:round;stroke-miterlimit:4;stroke-dasharray:none;stroke-opacity:1" />
  <path
     id="path4549"
     d="m 17.144294,328.14968 c -4.5534,16.06778 -8.2304002,32.50176 -10.9883002,49.24414 l 98.9433962,14.65039 c 2.1178,-12.49434 4.8907,-24.76684 8.2968,-36.77539 L 17.144294,328.14968 Z m 866.035096,0 -96.252,27.12109 c 3.406,12.00798 6.1792,24.27973 8.2969,36.77344 l 98.9434,-14.65235 c -2.7578,-16.74172 -6.435,-33.17501 -10.9883,-49.24218 z M 107.16579,520.73757 9.1306938,540.51101 c 3.4849002,17.21008 7.9518002,34.06369 13.3417002,50.50195 l 94.738296,-32.0957 c -4.0409,-12.43641 -7.4043,-25.17665 -10.0449,-38.17969 z m 685.9921,0 c -2.6407,13.00365 -6.0036,25.74467 -10.0448,38.18164 l 94.7383,32.09375 c 5.3899,-16.43826 9.8567,-33.29187 13.3417,-50.50195 l -98.0352,-19.77344 z m -624.8261,137.50781 -81.576096,57.90039 c 10.0226,13.70014 20.795096,26.81691 32.267496,39.28125 l 73.543,-67.8125 c -8.5931,-9.33636 -16.6858,-19.13986 -24.2344,-29.36914 z m 563.6582,0 c -7.5483,10.22878 -15.6397,20.03124 -24.2324,29.36719 l 73.543,67.81445 c 11.4721,-12.464 22.243,-25.58152 32.2655,-39.28125 l -81.5761,-57.90039 z"
     style="opacity:1;fill:#000000;fill-opacity:1;stroke:none;stroke-width:10;stroke-linecap:round;stroke-linejoin:round;stroke-miterlimit:4;stroke-dasharray:none;stroke-opacity:1"
     inkscape:connector-curvature="0" />
</svg>
